# xmcd CD database file
# Copyright (C) 1993-1998 Ti Kan
#
# Track frame offsets:
#	180
#	17021
#	33790
#
# Disc length: 928 seconds
#
# Revision: 1
# Processed by: cddbd v1.4b41PL1 Copyright (c) Steve Scherf et al.
# Submitted via: CDValet v3.31 - Copyright (c) 1997 Greg Leichner
#
DISCID=15039e03
DTITLE=Ton Meisen - 't Huikske
DYEAR=1900
DGENRE=
TTITLE0='t Huikske
TTITLE1='t Hoekie
TTITLE2=Kleine glaasjes
EXTD=
EXTT0=
EXTT1=
EXTT2=
PLAYORDER=
